<?xml version="1.0" standalone="no"?>
<!DOCTYPE svg PUBLIC "-//W3C//DTD SVG 20010904//EN"
 "http://www.w3.org/TR/2001/REC-SVG-20010904/DTD/svg10.dtd">
<svg version="1.0" xmlns="http://www.w3.org/2000/svg"
 width="1500.000000pt" height="2100.000000pt" viewBox="0 0 1500.000000 2100.000000"
 preserveAspectRatio="xMidYMid meet">

<g transform="translate(0.000000,2100.000000) scale(0.100000,-0.100000)"
fill="#000000" stroke="none">
<path d="M7825 13979 c-38 -4 -113 -13 -165 -19 -773 -90 -1436 -421 -1961
-977 -303 -321 -522 -732 -587 -1098 -6 -33 -16 -89 -23 -125 -15 -84 -15
-402 0 -505 57 -390 164 -674 368 -981 259 -389 596 -697 954 -872 258 -125
496 -184 810 -198 402 -19 734 99 984 351 191 191 321 446 362 710 20 129 12
326 -17 445 -66 270 -269 517 -532 647 -277 136 -645 148 -928 28 -211 -88
-371 -268 -441 -495 -20 -63 -24 -97 -24 -210 0 -152 7 -186 66 -306 108 -222
355 -354 665 -355 63 0 116 -4 120 -10 3 -5 2 -107 -2 -225 l-7 -216 -26 -10
c-48 -19 -355 -22 -470 -4 -317 49 -571 175 -792 396 -224 224 -355 489 -390
793 -24 208 32 470 144 677 314 577 1021 960 1660 901 267 -24 522 -112 750
-258 113 -72 183 -129 301 -243 368 -357 555 -777 556 -1251 0 -162 -24 -335
-70 -494 -187 -659 -708 -1169 -1375 -1345 -208 -56 -294 -65 -600 -64 -305 0
-397 9 -649 65 -368 80 -724 227 -1001 412 -519 347 -910 898 -1051 1482 -32
135 -53 259 -55 320 0 42 -16 110 -18 80 -1 -6 -5 -46 -10 -90 -32 -279 -34
-303 -22 -407 31 -262 48 -348 101 -513 46 -140 140 -336 220 -459 313 -480
906 -893 1550 -1080 539 -156 1159 -167 1748 -29 52 12 15 -15 -71 -51 -217
-92 -435 -156 -662 -193 -138 -22 -607 -26 -750 -5 -333 48 -737 160 -973 269
-346 159 -748 505 -949 815 -80 124 -86 97 -10 -47 209 -397 481 -713 842
-977 379 -277 903 -476 1400 -533 77 -8 176 -20 221 -25 133 -16 198 -13 587
31 626 70 1199 297 1632 646 127 102 329 310 423 436 280 372 441 767 514
1257 16 108 16 481 0 580 -72 443 -191 728 -450 1080 -71 96 -325 349 -423
423 -389 288 -865 488 -1339 561 -58 9 -132 21 -166 26 -33 6 -90 10 -125 11
-35 0 -73 4 -84 8 -37 15 50 29 262 42 548 34 1104 -82 1598 -334 263 -134
468 -280 661 -472 306 -304 482 -655 561 -1118 22 -129 25 -583 5 -722 -46
-316 -138 -666 -227 -864 -16 -34 -25 -64 -21 -68 8 -8 0 -19 103 137 148 224
272 493 332 722 45 167 60 256 73 426 35 448 -76 886 -328 1294 -265 426 -747
857 -1239 1106 -271 137 -610 232 -1015 284 -139 17 -656 18 -760 0 -312 -53
-477 -105 -706 -222 -326 -167 -745 -522 -986 -836 -155 -203 -313 -486 -392
-706 -22 -60 -45 -108 -51 -108 -17 0 -39 286 -30 402 34 474 211 852 564
1207 287 288 668 528 1121 706 197 78 328 115 566 164 282 57 772 54 1114 -8
201 -36 409 -93 630 -175 202 -74 456 -194 605 -286 119 -73 123 -75 85 -40
-57 52 -336 233 -465 301 -407 216 -787 331 -1268 384 -146 16 -433 18 -552 4z"/>
<path d="M4869 13143 c-14 -44 -18 -48 -62 -61 -26 -7 -47 -17 -47 -22 0 -4
22 -14 49 -21 46 -12 50 -15 61 -56 7 -24 16 -43 20 -43 7 0 19 27 33 70 3 9
28 22 57 29 58 15 56 25 -10 44 -38 11 -45 17 -53 47 -5 19 -14 41 -21 48 -10
10 -15 3 -27 -35z"/>
<path d="M4210 12383 c-6 -27 -13 -53 -15 -58 -1 -6 -30 -16 -64 -24 -34 -7
-61 -19 -61 -26 0 -13 63 -35 99 -35 12 0 23 -6 25 -12 2 -7 10 -34 16 -60 7
-27 18 -48 25 -48 8 0 22 26 32 57 19 56 20 57 69 68 93 21 94 36 6 55 l-58
13 -17 59 c-21 71 -40 75 -57 11z"/>
<path d="M4568 11481 c-12 -30 -22 -40 -42 -43 -36 -4 -34 -21 3 -32 22 -6 33
-18 41 -42 14 -42 25 -43 36 -2 7 23 18 34 44 43 42 14 44 28 4 35 -21 4 -33
15 -47 43 -9 20 -19 37 -21 37 -1 0 -10 -18 -18 -39z"/>
</g>
</svg>
